<svg width="175" height="21" viewBox="0 0 175 21" xmlns="http://www.w3.org/2000/svg">
    <g fill-rule="evenodd" fill="#4c487c">
        <path d="M5.569.416c4.569 0 6.825 2.713 6.825 5.94 0 2.885-1.913 5.255-5.112 5.884l6.197 8.511H10.68l-6.026-8.339H2.342v8.339H0V.416h5.569zm-3.227 9.767h3.199c2.684 0 4.483-1.514 4.483-3.827 0-2.285-1.856-3.713-4.512-3.713h-3.17v7.54zM26.06.416l8.725 20.334h-2.477l-1.954-4.741h-9.936l-1.926 4.741h-2.477L24.712.416h1.348zm.468 6.426c-.385-.914-.908-2.11-1.046-2.596h-.138c-.165.571-.606 1.596-1.046 2.624l-2.945 6.912h8.064l-2.889-6.94zM54.486.416h1.371V20.75h-2.342V8.26c0-1.228.057-2.685.086-3.256h-.172a28.967 28.967 0 0 1-1.799 2.028l-4.699 5.042-4.7-5.042a28.999 28.999 0 0 1-1.799-2.028h-.2c.029.571.114 2.028.114 3.256v12.49h-2.37V.416h1.399l7.556 8.317L54.486.416zm12.597 0c4.427 0 6.426 2.685 6.426 5.569 0 1.742-.971 3.512-2.371 4.227 1.856.771 3.142 2.884 3.142 4.798 0 3.741-2.97 5.741-6.454 5.741h-6.724V.416h5.981zm-3.64 8.91h3.897c2.228 0 3.856-1.028 3.856-3.341 0-2.171-1.771-3.342-3.941-3.342h-3.811v6.683h-.001zm0 9.197h4.268c2.342 0 4.17-1.143 4.17-3.57 0-2.285-1.771-3.398-4.37-3.398h-4.068v6.968zm17.727 0h9.19v2.227H78.828V.416h2.342v18.107zM93.899.416h11.252v2.227h-8.91v6.226h8.653v2.285h-8.653v7.368h8.91v2.227H93.899zm21.636 0c4.57 0 6.826 2.713 6.826 5.94 0 2.885-1.914 5.255-5.112 5.884l6.197 8.511h-2.799l-6.026-8.339h-2.313v8.339h-2.342V.416h5.569zm-3.227 9.767h3.199c2.685 0 4.484-1.514 4.484-3.827 0-2.285-1.857-3.713-4.512-3.713h-3.17l-.001 7.54zm53.032 7.162a1.546 1.546 0 0 1-.103-.425c-.022-.054-.042-.11-.068-.162a5.341 5.341 0 0 0-.133-.248 5.538 5.538 0 0 0-.105-.167 9.057 9.057 0 0 0-.439-.592c-.077-.094-.542-.585-.186-.245a2.042 2.042 0 0 1-.255-.298c-1.23 2.338-3.529 3.561-5.789 3.565-4.674-.008-7.709-3.774-7.709-8.253 0-4.512 3.227-8.253 7.911-8.253 1.799 0 3.484.628 4.912 1.685V1.295C161.862.467 160.206.01 158.464.01c-5.712 0-10.309 4.626-10.309 10.509 0 5.861 4.381 10.446 10.061 10.479l.036.002.012-.001.014.001v-.001c2.834-.008 5.527-1.351 7.062-3.654z"/>
        <path d="M168.557 8.218c3.589 0 6.156 2.871 6.156 6.405 0 3.478-2.567 6.377-6.156 6.377-3.589 0-6.156-2.899-6.156-6.322 0-3.782 2.733-6.46 6.156-6.46zm0 10.739c2.153 0 3.865-1.795 3.865-4.362 0-2.595-1.877-4.334-3.865-4.334-2.071 0-3.865 1.767-3.865 4.39 0 2.374 1.657 4.306 3.865 4.306zm-25.185 1.723l-3.228-3.399c-1.857 2.485-3.913 3.713-6.141 3.713-1.828 0-3.342-.6-4.57-1.771-1.228-1.2-1.828-2.628-1.828-4.313 0-2.713 1.628-4.199 4.713-6.112-1.485-1.514-2.228-2.942-2.228-4.256 0-1.342.486-2.428 1.428-3.256C132.461.428 133.632 0 134.974 0s2.485.428 3.428 1.285c.971.857 1.457 1.942 1.457 3.285 0 1.742-1.257 3.342-3.799 4.798l3.913 4.228 2.057-3.285h2.77l-3.199 5.027 4.999 5.341-3.228.001zm-9.474-10.289c-2.701 1.32-4.051 2.941-4.051 4.891 0 .96.42 1.8 1.261 2.551.84.75 1.77 1.11 2.76 1.11.69 0 1.38-.21 2.071-.6.69-.42 1.171-.81 1.501-1.17.33-.39.78-.9 1.291-1.59l-4.833-5.192zm.507-2.596c.84-.39 1.291-.66 2.041-1.23.75-.6 1.17-1.32 1.17-2.161 0-1.44-1.14-2.431-2.671-2.431s-2.641 1.051-2.641 2.341c0 .96.691 2.13 2.101 3.481z"/>
    </g>
</svg>
